<?xml version="1.0" encoding="utf-8"?>
<!-- Generated by IcoMoon.io -->
<!DOCTYPE svg PUBLIC "-//W3C//DTD SVG 1.1//EN" "http://www.w3.org/Graphics/SVG/1.1/DTD/svg11.dtd">
<svg version="1.1" xmlns="http://www.w3.org/2000/svg" xmlns:xlink="http://www.w3.org/1999/xlink" width="500" height="50" viewBox="0 0 500 50">
<svg id="svq-close" width="39" height="50" viewBox="0 0 39 50" x="0" y="0">
<path fill="#999" d="M36.217 36.886q0 1.116-0.781 1.897l-3.795 3.795q-0.781 0.781-1.897 0.781t-1.897-0.781l-8.203-8.203-8.203 8.203q-0.781 0.781-1.897 0.781t-1.897-0.781l-3.795-3.795q-0.781-0.781-0.781-1.897t0.781-1.897l8.203-8.203-8.203-8.203q-0.781-0.781-0.781-1.897t0.781-1.897l3.795-3.795q0.781-0.781 1.897-0.781t1.897 0.781l8.203 8.203 8.203-8.203q0.781-0.781 1.897-0.781t1.897 0.781l3.795 3.795q0.781 0.781 0.781 1.897t-0.781 1.897l-8.203 8.203 8.203 8.203q0.781 0.781 0.781 1.897z"></path>
</svg>
<svg id="svq-play" width="39" height="50" viewBox="0 0 39 50" x="100" y="0">
<path fill="#fff" d="M38.616 25.865l-37.054 20.592q-0.642 0.363-1.102 0.084t-0.46-1.004v-41.071q0-0.725 0.46-1.004t1.102 0.084l37.054 20.592q0.642 0.363 0.642 0.865t-0.642 0.865z"></path>
</svg>
<svg id="svq-pause" width="43" height="50" viewBox="0 0 43 50" x="200" y="0">
<path fill="#fff" d="M42.857 5.357v39.286q0 0.725-0.53 1.256t-1.256 0.53h-14.286q-0.725 0-1.256-0.53t-0.53-1.256v-39.286q0-0.725 0.53-1.256t1.256-0.53h14.286q0.725 0 1.256 0.53t0.53 1.256zM17.857 5.357v39.286q0 0.725-0.53 1.256t-1.256 0.53h-14.286q-0.725 0-1.256-0.53t-0.53-1.256v-39.286q0-0.725 0.53-1.256t1.256-0.53h14.286q0.725 0 1.256 0.53t0.53 1.256z"></path>
</svg>
<svg id="svq-mail-forward" width="50" height="50" viewBox="0 0 50 50" x="300" y="0">
<path fill="#fff" d="M50 17.857q0 0.725-0.53 1.256l-14.286 14.286q-0.53 0.53-1.256 0.53t-1.256-0.53-0.53-1.256v-7.143h-6.25q-2.734 0-4.897 0.167t-4.297 0.6-3.711 1.186-2.944 1.939-2.232 2.818-1.353 3.864-0.488 5.050q0 1.535 0.14 3.432 0 0.167 0.070 0.656t0.070 0.739q0 0.419-0.237 0.698t-0.656 0.279q-0.446 0-0.781-0.474-0.195-0.251-0.363-0.614t-0.377-0.837-0.293-0.67q-3.544-7.952-3.544-12.584 0-5.552 1.479-9.291 4.52-11.244 24.414-11.244h6.25v-7.143q0-0.725 0.53-1.256t1.256-0.53 1.256 0.53l14.286 14.286q0.53 0.53 0.53 1.256z"></path>
</svg>
</svg>
